<svg xmlns="http://www.w3.org/2000/svg" viewBox="0 0 64 64"><radialGradient id="l4j0bQkBWlucIcLzabdrWa" cx="31.998" cy="34" r="31.016" gradientTransform="matrix(1 0 0 -1 0 66)" gradientUnits="userSpaceOnUse"><stop offset="0" stop-color="#afeeff"></stop><stop offset=".193" stop-color="#bbf1ff"></stop><stop offset=".703" stop-color="#d7f8ff"></stop><stop offset="1" stop-color="#e1faff"></stop></radialGradient><path fill="url(#l4j0bQkBWlucIcLzabdrWa)" d="M60.5,44H47v-8c0-2.761,2.239-5,5-5h7.38c1.67,0,3.19-1.12,3.54-2.75	C63.39,26.01,61.67,24,59.5,24h-0.376c-0.999,0-1.93-0.677-2.094-1.663C56.822,21.088,57.791,20,59,20h1.5	c2.17,0,3.89-2.01,3.42-4.25C63.57,14.12,62.05,13,60.38,13h-3.83c-1.43,0-2.36-0.68-2.52-1.66C53.82,10.09,54.79,9,56,9h0.38	c1.67,0,3.19-1.12,3.54-2.75C60.39,4.01,58.67,2,56.5,2H15.6c-1.67,0-3.19,1.13-3.52,2.77C11.61,7.01,13.33,9,15.5,9h2	c1.381,0,2.5,1.119,2.5,2.5l0,0c0,1.381-1.119,2.5-2.5,2.5l-9.327,0c-2.09,0-3.956,1.528-4.154,3.608C3.791,19.993,5.661,22,8,22	h8.5c1.381,0,2.5,1.119,2.5,2.5l0,0c0,1.381-1.119,2.5-2.5,2.5H5.21c-2.61,0-4.94,1.91-5.19,4.51C-0.26,34.49,2.08,37,5,37h0.304	c1.998,0,3.77,1.636,3.694,3.633c-0.034,0.908-0.417,1.736-1.028,2.337C7.34,43.61,6.46,44,5.5,44h-1c-2.17,0-3.89,2.01-3.42,4.25	C1.43,49.88,2.95,51,4.62,51h2.9c1.36,0,2.29,0.67,2.45,1.66C10.18,53.91,9.21,55,8,55H6.62c-1.67,0-3.19,1.12-3.54,2.75	C2.61,59.99,4.33,62,6.5,62l49.866,0c1.671,0,3.202-1.115,3.553-2.748C60.401,57.011,58.671,55,56.5,55h-0.376	c-0.999,0-1.93-0.677-2.094-1.663C53.822,52.088,54.791,51,56,51h4.38c1.67,0,3.19-1.12,3.54-2.75C64.39,46.01,62.67,44,60.5,44z"></path><linearGradient id="l4j0bQkBWlucIcLzabdrWb" x1="32" x2="32" y1="32" y2="11" gradientTransform="matrix(1 0 0 -1 0 66)" gradientUnits="userSpaceOnUse"><stop offset="0" stop-color="#ff9757"></stop><stop offset="1" stop-color="#ffb65b"></stop><stop offset="1" stop-color="#ffb65b"></stop></linearGradient><rect width="40" height="21" x="12" y="34" fill="url(#l4j0bQkBWlucIcLzabdrWb)"></rect><linearGradient id="l4j0bQkBWlucIcLzabdrWc" x1="32" x2="32" y1="40" y2="11" gradientTransform="matrix(1 0 0 -1 0 66)" gradientUnits="userSpaceOnUse"><stop offset="0" stop-color="#ff9757"></stop><stop offset="1" stop-color="#ffb65b"></stop><stop offset="1" stop-color="#ffb65b"></stop></linearGradient><polygon fill="url(#l4j0bQkBWlucIcLzabdrWc)" points="60,54 59,55 5,55 4,54 32,26"></polygon><linearGradient id="l4j0bQkBWlucIcLzabdrWd" x1="32" x2="32" y1="2.064" y2="27.656" gradientTransform="matrix(1 0 0 -1 0 66)" gradientUnits="userSpaceOnUse"><stop offset="0" stop-color="#feaa53"></stop><stop offset=".612" stop-color="#ffcd49"></stop><stop offset="1" stop-color="#ffde44"></stop></linearGradient><path fill="url(#l4j0bQkBWlucIcLzabdrWd)" d="M49,54c0,0.33-0.01,0.67-0.03,1H15.03C15.01,54.67,15,54.33,15,54c0-9.39,7.61-17,17-17	S49,44.61,49,54z"></path><linearGradient id="l4j0bQkBWlucIcLzabdrWe" x1="32" x2="32" y1="7.298" y2="14.888" gradientTransform="matrix(1 0 0 -1 0 66)" gradientUnits="userSpaceOnUse"><stop offset="0" stop-color="#155cde"></stop><stop offset=".122" stop-color="#196ae1"></stop><stop offset=".509" stop-color="#2493e9"></stop><stop offset=".815" stop-color="#2bacee"></stop><stop offset="1" stop-color="#2eb5f0"></stop></linearGradient><path fill="url(#l4j0bQkBWlucIcLzabdrWe)" d="M60,57H4c-1.104,0-2-0.896-2-2s0.896-2,2-2h56c1.104,0,2,0.896,2,2S61.104,57,60,57z"></path><linearGradient id="l4j0bQkBWlucIcLzabdrWf" x1="32" x2="32" y1="28.024" y2="78.479" gradientTransform="matrix(1 0 0 -1 0 66)" gradientUnits="userSpaceOnUse"><stop offset="0" stop-color="#155cde"></stop><stop offset=".122" stop-color="#196ae1"></stop><stop offset=".509" stop-color="#2493e9"></stop><stop offset=".815" stop-color="#2bacee"></stop><stop offset="1" stop-color="#2eb5f0"></stop></linearGradient><path fill="url(#l4j0bQkBWlucIcLzabdrWf)" d="M39.414,11.586l-6-6c-0.781-0.781-2.048-0.781-2.828,0l-6,6	c-0.572,0.572-0.743,1.432-0.434,2.18C24.462,14.513,25.191,15,26,15h4v6c0,1.104,0.896,2,2,2s2-0.896,2-2v-6h4	c0.809,0,1.538-0.487,1.848-1.234C40.157,13.018,39.986,12.158,39.414,11.586z"></path></svg>